<?xml version="1.0" standalone="no"?>
<!DOCTYPE svg PUBLIC "-//W3C//DTD SVG 20010904//EN"
 "http://www.w3.org/TR/2001/REC-SVG-20010904/DTD/svg10.dtd">
<svg version="1.0" xmlns="http://www.w3.org/2000/svg"
 width="532.000000pt" height="724.000000pt" viewBox="0 0 532.000000 724.000000"
 preserveAspectRatio="xMidYMid meet">
<metadata>
Created by potrace 1.16, written by Peter Selinger 2001-2019
</metadata>
<g transform="translate(0.000000,724.000000) scale(0.100000,-0.100000)"
fill="#000000" stroke="none">
<path d="M1925 6987 c-16 -5 -34 -16 -38 -23 -4 -8 -16 -14 -26 -14 -10 0 -38
-18 -61 -40 -40 -37 -42 -42 -36 -82 3 -24 13 -97 22 -163 9 -66 18 -151 21
-190 2 -38 9 -115 14 -170 5 -55 11 -131 12 -170 l2 -70 -63 -3 c-36 -2 -69 2
-77 8 -7 6 -36 13 -64 17 -28 3 -54 10 -57 14 -7 12 -111 12 -118 0 -3 -4 -23
-11 -44 -15 -28 -4 -53 -19 -83 -48 l-44 -43 -215 -1 c-165 0 -224 -4 -252
-15 -21 -9 -41 -18 -44 -22 -4 -4 -16 -7 -26 -7 -10 0 -18 -4 -18 -10 0 -5 -9
-10 -20 -10 -11 0 -20 -4 -20 -10 0 -5 -7 -10 -15 -10 -20 0 -115 -51 -115
-62 0 -4 3 -8 8 -8 12 0 97 44 104 55 4 5 61 12 128 14 l120 3 0 39 0 39 83 0
c131 0 330 -61 341 -104 15 -62 169 -209 269 -259 l77 -39 0 -50 c0 -45 -4
-55 -45 -100 -25 -28 -45 -56 -45 -64 0 -8 -4 -14 -8 -14 -5 0 -21 -23 -36
-50 l-28 -51 -55 3 c-53 3 -57 5 -75 40 -14 26 -40 49 -90 79 -91 53 -137 60
-207 28 -28 -13 -51 -27 -51 -31 0 -5 -6 -8 -13 -8 -8 0 -21 -8 -31 -19 -16
-18 -13 -18 96 -23 97 -5 122 -10 176 -34 l62 -29 0 -50 0 -51 -63 -11 c-35
-6 -83 -20 -108 -31 l-44 -20 50 -1 c71 -1 145 -23 178 -51 23 -20 27 -31 27
-75 0 -48 -2 -52 -32 -68 l-33 -16 28 0 c25 -1 27 -4 27 -42 0 -52 -20 -171
-32 -183 -12 -14 -10 -176 2 -176 6 0 10 -32 10 -75 l0 -75 -58 0 c-32 0 -81
6 -109 13 -52 14 -52 14 -37 -7 8 -11 14 -43 14 -73 l0 -53 -47 0 c-25 0 -44
-2 -41 -5 2 -3 36 -16 74 -31 49 -18 97 -27 164 -31 52 -3 100 -10 106 -15 7
-5 17 -29 23 -53 6 -25 16 -45 21 -45 6 0 10 -4 10 -9 0 -6 11 -22 25 -37 14
-15 25 -31 25 -36 0 -10 34 -60 63 -92 12 -14 17 -37 17 -76 l0 -57 -87 -6
c-47 -4 -91 -11 -97 -17 -5 -5 -25 -10 -43 -10 -18 0 -33 -4 -33 -10 0 -5 -6
-10 -13 -10 -23 0 -134 -58 -168 -87 -59 -51 -119 -117 -119 -130 0 -7 -4 -13
-9 -13 -5 0 -23 -29 -40 -65 l-32 -65 -128 0 c-100 0 -131 -3 -141 -14 -8 -11
-10 -64 -7 -198 6 -206 26 -377 57 -488 12 -41 26 -93 31 -115 6 -22 23 -64
39 -95 16 -30 43 -89 60 -130 18 -41 36 -83 41 -92 5 -10 9 -31 9 -48 0 -17 6
-33 14 -36 8 -3 20 -26 28 -51 8 -30 34 -70 73 -114 33 -37 102 -117 154 -176
101 -117 170 -170 326 -250 49 -25 105 -58 122 -72 30 -23 33 -31 33 -79 0
-41 -4 -54 -17 -58 -122 -40 -249 -147 -302 -256 -47 -96 -66 -186 -53 -250
46 -228 202 -384 430 -430 108 -22 271 42 376 148 106 105 170 268 148 376
-16 82 -50 164 -88 213 -29 39 -34 53 -34 100 0 78 -14 77 355 32 50 -6 201
-10 338 -10 l247 2 0 -55 c0 -44 -5 -62 -30 -95 -93 -129 -102 -304 -22 -453
42 -79 146 -177 233 -220 144 -71 239 -70 388 4 161 81 284 265 284 425 0 149
-116 332 -263 415 l-60 34 0 53 0 53 68 35 c127 67 209 136 331 280 24 28 64
74 89 104 61 71 69 82 107 155 l31 61 124 8 c147 9 246 33 377 90 94 41 98 44
176 139 67 81 88 115 122 200 l41 103 -13 110 c-12 101 -28 155 -57 180 -6 6
-20 27 -31 48 -45 85 -128 139 -300 196 l-110 36 0 80 0 80 -64 9 -63 10 4
175 c6 223 21 265 113 306 11 5 127 12 257 15 233 5 237 5 262 29 14 14 26 30
26 36 0 21 -50 55 -79 55 -16 0 -36 7 -45 15 -18 19 -235 22 -253 4 -6 -6 -47
-15 -91 -19 -114 -12 -159 -38 -236 -139 -67 -88 -74 -103 -75 -156 -1 -27 -4
-67 -7 -87 -7 -38 -7 -38 -56 -38 -36 0 -55 6 -74 23 -49 43 -93 82 -107 93
-7 7 -28 15 -45 19 -18 3 -32 11 -32 16 0 5 -8 9 -18 9 -10 0 -28 9 -40 20
-17 16 -41 22 -117 27 l-95 6 0 51 c0 43 5 57 31 86 41 46 89 116 89 129 0 6
5 11 10 11 6 0 10 5 10 10 0 6 9 20 20 32 11 12 20 29 20 38 0 8 7 26 16 38
13 19 24 22 82 22 73 0 160 19 226 49 l41 19 -42 1 -43 1 0 53 c0 31 6 61 16
75 15 22 15 22 -13 11 -15 -6 -65 -13 -112 -16 l-83 -6 6 149 c6 115 4 168 -8
234 -9 47 -16 104 -16 127 0 38 2 42 28 45 l27 3 -32 15 c-31 14 -33 18 -33
66 0 47 3 54 34 78 37 28 97 45 166 46 41 1 43 2 20 12 -14 6 -38 17 -53 24
-15 7 -48 16 -72 20 l-45 6 0 50 c0 58 8 67 75 93 39 15 76 20 168 20 130 0
128 -4 31 59 -29 18 -60 35 -71 38 -25 7 -134 -8 -142 -19 -3 -5 -30 -24 -59
-43 -32 -20 -59 -47 -69 -67 -15 -33 -17 -34 -72 -31 -51 3 -57 6 -71 34 -9
16 -25 41 -38 54 -12 13 -25 33 -28 44 -4 12 -24 37 -45 57 -36 33 -39 41 -39
87 l0 51 87 43 c67 33 104 60 158 114 79 79 95 98 95 114 0 19 32 60 47 60 7
0 30 8 51 19 48 24 132 41 252 52 69 5 46 6 -82 2 -157 -4 -179 -3 -184 11 -3
9 -15 16 -25 16 -11 0 -19 7 -19 16 0 21 -29 43 -56 44 -12 0 -39 7 -59 16
-25 10 -56 14 -89 11 -79 -8 -157 -27 -173 -43 -15 -14 -97 -20 -127 -8 -19 7
-22 92 -7 171 5 26 14 93 20 148 20 187 32 290 42 350 6 33 12 83 15 110 5 49
4 51 -32 75 -21 14 -42 30 -48 35 -13 12 -50 31 -88 45 -28 9 -28 9 -28 -30
l0 -40 -47 0 c-27 0 -75 5 -108 10 -141 23 -243 31 -494 39 -301 10 -497 1
-613 -29 -43 -11 -100 -20 -127 -20 l-50 0 -3 43 -3 44 -30 -10z m1253 -816
l112 -1 0 -35 c0 -32 2 -35 30 -35 30 0 30 -1 30 -55 l0 -55 -60 0 -60 0 0 35
c0 37 -2 38 -37 29 -20 -6 -23 -13 -23 -60 0 -66 -20 -64 257 -23 114 17 254
34 311 36 l102 5 0 -55 c0 -31 -4 -58 -9 -61 -5 -3 -42 -13 -83 -21 -40 -8
-116 -24 -168 -35 -52 -12 -131 -25 -175 -29 -92 -10 -280 -35 -440 -59 -131
-19 -325 -21 -450 -4 -49 7 -148 17 -220 23 -71 6 -135 15 -142 21 -6 5 -72
14 -145 19 -147 10 -208 18 -223 29 -5 4 -64 19 -130 35 -66 15 -126 29 -132
31 -9 2 -13 23 -13 60 l0 57 103 -7 c96 -6 511 -61 550 -72 13 -4 17 1 17 20
0 26 -1 26 -80 26 l-80 0 0 55 c0 48 2 55 20 55 16 0 20 7 20 34 0 32 3 35 33
39 17 2 244 3 502 1 259 -1 521 -3 583 -3z m-998 -481 c148 -29 443 -50 612
-45 154 5 313 21 339 35 52 27 242 37 258 12 3 -5 26 -22 51 -37 69 -44 200
-183 274 -292 36 -54 66 -104 66 -110 0 -7 3 -13 8 -13 7 0 12 -9 50 -100 86
-203 126 -487 102 -737 -17 -187 -49 -286 -131 -403 -72 -103 -72 -103 -140
-98 -55 4 -62 2 -82 -21 -12 -14 -33 -32 -47 -39 -14 -7 -45 -31 -70 -52 -25
-22 -48 -40 -52 -40 -5 0 -50 -19 -100 -42 -51 -22 -106 -45 -123 -49 -16 -4
-72 -19 -123 -32 -51 -14 -139 -31 -196 -37 -119 -14 -434 -9 -444 7 -4 5 -32
13 -62 16 -30 4 -80 14 -110 22 -30 8 -80 19 -111 24 -31 5 -72 20 -95 36 -21
14 -51 29 -66 32 -16 3 -28 9 -28 14 0 5 -10 9 -23 9 -13 0 -43 19 -71 45 -27
24 -58 47 -69 51 -10 3 -31 20 -47 37 -25 28 -31 30 -88 28 l-60 -2 -45 63
c-77 109 -127 219 -144 321 -33 194 -7 666 38 697 5 3 15 32 23 65 9 32 20 61
24 64 5 3 12 23 16 44 4 21 13 40 21 43 8 3 17 19 20 35 4 16 10 29 15 29 4 0
13 14 20 31 7 17 30 51 52 77 21 26 38 52 38 59 0 16 197 213 213 213 7 0 26
13 42 29 26 26 38 30 85 30 30 1 102 -8 160 -19z m-530 -2071 c64 -23 139 -79
180 -133 35 -46 40 -60 40 -104 l0 -52 -50 0 c-36 0 -62 8 -97 28 -56 33 -103
51 -63 25 14 -9 57 -49 96 -88 106 -106 144 -196 144 -347 0 -93 -18 -152 -61
-202 -19 -22 -31 -26 -80 -26 -47 0 -60 -4 -68 -19 -14 -25 -62 -41 -127 -41
l-54 0 0 37 c0 33 -1 35 -13 18 -12 -15 -24 -17 -80 -13 -42 4 -72 12 -82 22
-9 9 -20 16 -25 16 -15 0 -72 53 -91 85 -11 16 -19 24 -19 17 0 -28 57 -91
127 -140 142 -100 201 -116 311 -88 165 43 274 142 302 273 6 28 17 54 25 56
7 3 181 2 387 -3 205 -5 498 -9 651 -10 165 0 286 -4 297 -10 10 -5 35 -38 56
-72 21 -34 39 -57 42 -50 2 6 -1 20 -7 31 -31 57 9 361 47 361 4 0 15 12 24
28 23 37 121 135 149 149 13 7 18 12 10 12 -8 1 -38 -12 -68 -29 -39 -22 -66
-30 -103 -30 l-50 0 0 54 c0 45 5 60 26 83 14 15 39 42 54 60 34 39 118 86
182 103 31 8 86 11 155 8 94 -4 117 -9 175 -36 175 -82 247 -222 235 -461 -4
-105 -20 -162 -51 -194 -13 -12 -1 -15 91 -20 57 -4 109 -9 114 -13 14 -8 11
-116 -7 -191 -48 -213 -96 -395 -117 -448 -42 -104 -84 -190 -99 -206 -24 -24
-68 -97 -68 -114 0 -8 -4 -15 -9 -15 -5 0 -18 -15 -30 -32 -11 -18 -28 -42
-38 -53 -10 -11 -30 -37 -44 -57 -30 -44 -93 -112 -140 -151 -19 -15 -47 -38
-64 -52 -16 -14 -34 -25 -38 -25 -4 0 -41 -22 -82 -50 -78 -53 -160 -89 -343
-151 -165 -56 -253 -63 -647 -55 -339 7 -420 15 -491 47 -23 11 -52 19 -65 19
-13 0 -60 11 -104 25 -44 14 -92 25 -107 25 -39 0 -246 97 -302 141 -27 22
-53 39 -58 39 -24 0 -189 124 -233 176 -28 32 -87 99 -133 148 -83 89 -91 103
-187 311 -13 28 -33 82 -44 120 -38 126 -104 419 -108 482 -4 53 -2 64 18 84
21 21 27 22 153 16 l131 -5 -25 22 c-38 33 -52 80 -57 198 -13 261 83 412 300
473 62 18 252 14 307 -6z m1580 -102 c0 -55 -16 -88 -170 -356 l-35 -61 -51 0
c-50 0 -52 1 -118 70 -37 39 -70 70 -72 70 -2 0 -4 -33 -4 -74 0 -59 -4 -78
-21 -100 -19 -24 -26 -26 -95 -26 -42 0 -84 5 -95 10 -26 15 -49 73 -49 127
l0 45 -57 -62 -57 -61 -55 3 c-52 3 -55 4 -75 43 -11 22 -24 42 -28 43 -4 2
-8 9 -8 17 0 17 -50 105 -59 105 -5 0 -25 33 -45 73 -28 56 -36 85 -36 125 l0
52 66 0 c48 0 93 -9 172 -35 59 -20 139 -41 177 -46 39 -6 77 -14 85 -19 18
-9 27 -107 11 -123 -20 -20 -12 -27 28 -27 22 0 52 -5 67 -10 37 -14 42 -4 11
21 -24 18 -27 28 -27 79 0 67 4 70 83 70 56 0 273 55 297 75 20 17 45 22 108
24 l52 1 0 -53z m1493 -533 c64 -32 127 -91 175 -164 l36 -55 3 -150 3 -150
-47 -90 c-44 -83 -55 -95 -137 -157 l-88 -68 -142 0 c-97 0 -146 4 -154 12 -7
7 -12 43 -12 89 0 63 14 137 75 384 41 168 75 309 75 315 0 5 4 20 10 34 9 25
14 26 80 26 56 0 81 -5 123 -26z"/>
<path d="M2609 4967 c-8 -8 -33 -24 -55 -35 -51 -26 -118 -94 -140 -140 -9
-20 -22 -44 -30 -52 -20 -23 -34 -88 -59 -272 -22 -164 -23 -170 -6 -248 11
-48 26 -88 37 -99 10 -9 34 -34 52 -55 21 -24 53 -45 85 -57 50 -19 52 -18 92
1 44 21 124 27 141 10 46 -46 144 -18 213 61 59 67 61 71 82 149 16 63 16 73
-2 211 -32 244 -64 333 -153 427 -80 83 -219 137 -257 99z"/>
<path d="M2060 4780 c0 -25 -35 -39 -97 -40 -39 0 -63 4 -63 11 0 6 -6 9 -12
6 -17 -5 -10 -57 10 -80 9 -11 30 -25 47 -32 26 -10 35 -9 68 7 21 11 46 32
55 49 9 16 20 29 25 29 13 0 7 21 -13 42 -13 14 -20 17 -20 8z"/>
<path d="M3261 4772 c-20 -38 13 -98 70 -128 52 -27 115 7 131 71 5 19 1 20
-69 17 -77 -4 -98 4 -113 42 -7 20 -7 20 -19 -2z"/>
<path d="M3418 2755 c16 -32 41 -50 139 -99 86 -43 98 -46 171 -46 71 0 86 4
163 41 86 42 114 61 130 91 6 12 -10 7 -57 -18 -53 -27 -77 -34 -124 -34 -37
0 -60 5 -63 13 -3 6 -6 -3 -6 -20 -1 -33 -1 -33 -53 -33 -32 0 -68 8 -95 21
-37 18 -43 25 -44 52 -1 18 -3 24 -6 15 -3 -14 -15 -18 -56 -18 -42 0 -56 5
-80 28 -22 20 -27 22 -19 7z"/>
<path d="M4440 5938 l0 -38 58 0 c88 0 171 -17 231 -47 74 -37 71 -36 71 -24
0 5 -17 18 -37 28 -21 9 -40 20 -43 24 -3 3 -20 10 -38 14 -18 3 -38 12 -45
19 -24 23 -93 50 -144 56 l-53 6 0 -38z"/>
<path d="M502 5816 c-32 -23 -140 -131 -174 -174 -10 -12 -18 -36 -18 -53 0
-17 -9 -40 -22 -54 -35 -38 -118 -209 -118 -243 0 -11 -5 -24 -10 -27 -5 -3
-10 -17 -10 -31 0 -14 -5 -35 -11 -46 -18 -33 -14 -259 4 -294 l15 -29 11 28
c6 15 17 27 26 27 8 0 15 5 15 10 0 6 25 10 55 10 l55 0 1 -62 c0 -35 4 -83 9
-108 5 -25 15 -75 22 -112 7 -37 19 -73 26 -80 6 -6 12 -16 12 -21 0 -20 37
-36 82 -37 35 0 53 -6 72 -24 15 -13 26 -28 26 -35 0 -6 4 -11 8 -11 9 0 65
-84 75 -112 4 -10 15 -18 26 -18 11 0 30 -13 43 -29 22 -27 113 -91 130 -91 4
0 8 20 8 45 0 42 2 45 28 45 27 1 26 1 -18 40 -39 34 -51 39 -95 40 -49 0 -51
1 -99 60 -51 64 -95 157 -96 203 0 15 -4 27 -10 27 -6 0 -10 42 -11 103 l-1
102 -16 -52 -15 -53 -53 0 -54 0 0 35 c0 19 -4 35 -10 35 -6 0 -10 65 -10 176
l0 176 -23 -29 c-12 -15 -40 -54 -62 -85 l-38 -58 -55 0 -55 0 5 121 c3 78 9
124 17 128 7 5 19 34 27 66 15 55 49 134 63 145 3 3 15 23 26 45 22 44 138
165 159 165 7 0 25 11 40 25 21 20 26 33 26 74 0 30 5 51 13 54 6 3 8 6 2 6
-5 0 -25 -10 -43 -23z"/>
<path d="M4820 5762 l0 -52 70 -51 c166 -121 266 -319 277 -551 l6 -118 -55 0
c-53 0 -55 1 -86 45 -18 25 -32 48 -32 51 0 4 -12 20 -27 38 l-28 31 0 -150
c0 -95 -5 -171 -14 -207 l-14 -58 -52 0 c-51 0 -52 0 -61 38 -9 35 -10 32 -17
-48 -4 -47 -14 -95 -22 -107 -8 -12 -15 -31 -15 -42 0 -28 -52 -131 -65 -131
-7 0 -24 -23 -39 -51 l-28 -50 -58 2 c-45 2 -63 -2 -84 -18 -14 -12 -26 -25
-26 -30 0 -6 -10 -15 -22 -21 -21 -10 -20 -11 15 -11 36 -1 37 -2 37 -40 0
-39 1 -40 28 -30 15 5 50 27 77 49 28 22 60 45 73 51 12 7 22 16 22 21 0 8 66
98 79 108 4 3 17 19 30 35 19 26 31 31 79 35 47 4 59 9 68 29 7 13 17 27 23
30 10 6 30 81 51 191 5 25 9 73 9 108 l1 62 58 0 c49 0 62 -4 82 -25 13 -14
26 -25 30 -25 12 0 30 50 30 80 0 17 5 30 10 30 6 0 10 18 10 40 0 22 -4 40
-10 40 -5 0 -10 16 -10 36 0 19 -5 45 -11 56 -6 12 -18 53 -26 92 -12 64 -29
112 -43 126 -13 13 -60 117 -60 131 0 9 -9 19 -20 22 -16 4 -20 14 -20 50 0
36 -4 46 -20 50 -11 3 -22 17 -25 33 -10 46 -19 58 -53 66 -21 6 -32 15 -32
26 0 24 -19 42 -45 42 -12 0 -26 5 -33 12 -9 9 -12 0 -12 -40z"/>
</g>
</svg>
